<?xml version="1.0" standalone="no"?>
<!DOCTYPE svg PUBLIC "-//W3C//DTD SVG 20010904//EN"
 "http://www.w3.org/TR/2001/REC-SVG-20010904/DTD/svg10.dtd">
<svg version="1.0" xmlns="http://www.w3.org/2000/svg"
 width="512.000000pt" height="512.000000pt" viewBox="0 0 512.000000 512.000000"
 preserveAspectRatio="xMidYMid meet">
<metadata>
Created by potrace 1.11, written by Peter Selinger 2001-2013
</metadata>
<g transform="translate(0.000000,512.000000) scale(0.100000,-0.100000)"
fill="#00897B" stroke="none">
<path d="M2255 4894 c-361 -49 -684 -170 -986 -368 -558 -369 -925 -938 -1036
-1611 -26 -156 -26 -554 0 -710 43 -257 101 -442 212 -672 116 -241 237 -413
425 -607 197 -203 388 -345 633 -467 214 -108 347 -155 565 -200 434 -89 930
-53 1331 98 89 33 362 173 443 226 262 173 546 461 711 720 48 75 169 316 208
415 42 106 93 295 121 449 20 111 23 162 23 388 0 205 -4 283 -18 370 -54 331
-181 657 -355 918 -106 158 -153 217 -272 341 -386 400 -859 639 -1403 711
-145 19 -461 18 -602 -1z m1705 -2124 l0 -840 -991 0 -990 0 -37 -30 c-73 -61
-497 -380 -504 -380 -4 0 -9 91 -10 203 l-3 202 -132 3 -133 3 0 839 0 840
1400 0 1400 0 0 -840z"/>
<path d="M1830 2969 c-71 -29 -140 -123 -140 -193 0 -84 59 -173 135 -202 33
-12 61 -15 102 -11 219 23 253 334 44 405 -41 14 -107 15 -141 1z"/>
<path d="M2492 2959 c-157 -78 -159 -296 -2 -377 64 -33 155 -27 213 16 103
75 118 228 30 316 -64 65 -163 83 -241 45z"/>
<path d="M3145 2961 c-209 -97 -139 -402 91 -401 107 1 204 101 204 210 0 148
-161 253 -295 191z"/>
</g>
</svg>
