<svg version="1" xmlns="http://www.w3.org/2000/svg" width="682.667" height="682.667" viewBox="0 0 512.000000 512.000000"><g fill="#00897B"><path d="M225.5 22.6c-36.1 4.9-68.4 17-98.6 36.8-55.8 36.9-92.5 93.8-103.6 161.1-2.6 15.6-2.6 55.4 0 71 4.3 25.7 10.1 44.2 21.2 67.2C56.1 382.8 68.2 400 87 419.4c19.7 20.3 38.8 34.5 63.3 46.7 21.4 10.8 34.7 15.5 56.5 20 43.4 8.9 93 5.3 133.1-9.8 8.9-3.3 36.2-17.3 44.3-22.6 26.2-17.3 54.6-46.1 71.1-72 4.8-7.5 16.9-31.6 20.8-41.5 4.2-10.6 9.3-29.5 12.1-44.9 2-11.1 2.3-16.2 2.3-38.8 0-20.5-.4-28.3-1.8-37-5.4-33.1-18.1-65.7-35.5-91.8-10.6-15.8-15.3-21.7-27.2-34.1-38.6-40-85.9-63.9-140.3-71.1-14.5-1.9-46.1-1.8-60.2.1zM396 235v84H197.9l-3.7 3c-7.3 6.1-49.7 38-50.4 38-.4 0-.9-9.1-1-20.3l-.3-20.2-13.2-.3-13.3-.3V151h280v84z"/><path d="M183 215.1c-7.1 2.9-14 12.3-14 19.3 0 8.4 5.9 17.3 13.5 20.2 3.3 1.2 6.1 1.5 10.2 1.1 21.9-2.3 25.3-33.4 4.4-40.5-4.1-1.4-10.7-1.5-14.1-.1zM249.2 216.1c-15.7 7.8-15.9 29.6-.2 37.7 6.4 3.3 15.5 2.7 21.3-1.6 10.3-7.5 11.8-22.8 3-31.6-6.4-6.5-16.3-8.3-24.1-4.5zM314.5 215.9c-20.9 9.7-13.9 40.2 9.1 40.1 10.7-.1 20.4-10.1 20.4-21 0-14.8-16.1-25.3-29.5-19.1z"/></g></svg>