<?xml version="1.0" standalone="no"?>
<!DOCTYPE svg PUBLIC "-//W3C//DTD SVG 20010904//EN"
 "http://www.w3.org/TR/2001/REC-SVG-20010904/DTD/svg10.dtd">
<svg version="1.0" xmlns="http://www.w3.org/2000/svg"
 width="512.000000pt" height="512.000000pt" viewBox="0 0 512.000000 512.000000"
 preserveAspectRatio="xMidYMid meet">
<metadata>
Created by potrace 1.11, written by Peter Selinger 2001-2013
</metadata>
<g transform="translate(0.000000,512.000000) scale(0.100000,-0.100000)"
fill="#000000" stroke="none">
<path d="M2508 4915 c-2 -1 -50 -5 -108 -9 -58 -3 -116 -8 -130 -10 -14 -2
-59 -10 -100 -16 -91 -14 -250 -53 -325 -79 -30 -11 -55 -17 -55 -14 0 3 -6 1
-12 -4 -7 -6 -29 -15 -48 -22 -19 -6 -48 -17 -65 -24 -38 -15 -287 -139 -300
-149 -5 -4 -62 -42 -125 -84 -249 -166 -483 -403 -641 -649 -32 -49 -63 -96
-69 -102 -6 -7 -8 -13 -4 -13 4 0 0 -8 -8 -17 -51 -61 -210 -438 -200 -475 1
-5 -3 -8 -8 -8 -6 0 -10 -6 -8 -12 1 -7 -3 -29 -10 -48 -6 -19 -14 -46 -16
-60 -3 -14 -5 -25 -6 -25 -2 0 -6 -20 -14 -62 -36 -196 -39 -237 -40 -458 -1
-183 8 -342 19 -354 3 -2 -3 -14 -12 -25 -14 -16 -15 -18 -2 -8 14 10 17 9 22
-7 2 -11 0 -25 -7 -32 -8 -9 -8 -10 2 -5 7 5 12 1 13 -11 1 -18 4 -34 8 -43 1
-3 4 -18 6 -35 4 -32 12 -70 15 -70 2 0 5 -16 13 -57 3 -14 10 -35 16 -46 6
-11 7 -22 4 -26 -3 -3 -1 -6 6 -6 7 0 10 -4 6 -9 -3 -5 -1 -12 3 -15 5 -3 8
-19 7 -36 -1 -16 1 -28 3 -25 9 8 53 -108 47 -123 -2 -7 -1 -11 4 -8 11 7 23
-22 14 -36 -3 -6 -1 -8 5 -4 13 8 26 -29 16 -45 -4 -7 -3 -9 4 -5 11 6 42 -46
42 -71 0 -7 4 -13 8 -13 5 0 14 -16 22 -35 8 -19 17 -35 22 -35 4 0 8 -9 8
-21 0 -11 5 -17 10 -14 5 3 10 -1 10 -9 0 -9 9 -25 20 -36 11 -11 20 -29 20
-41 0 -13 4 -18 12 -13 8 5 9 2 5 -10 -4 -9 -3 -15 2 -12 10 7 54 -52 46 -64
-3 -5 0 -12 6 -16 8 -5 9 -3 4 6 -6 9 -4 11 4 6 7 -5 10 -14 7 -22 -3 -8 -1
-13 3 -11 15 4 62 -55 57 -70 -3 -8 -2 -12 3 -8 13 8 42 -24 34 -38 -3 -7 -3
-9 2 -5 8 7 135 -118 135 -133 0 -5 7 -9 16 -9 10 0 14 -5 10 -16 -3 -9 -2
-12 4 -9 6 4 24 -7 41 -24 17 -17 35 -31 40 -31 6 0 7 -5 4 -10 -3 -6 -1 -10
5 -10 6 0 21 -9 33 -21 12 -11 49 -41 82 -65 33 -25 68 -52 78 -60 9 -8 22
-14 27 -14 6 0 10 -3 10 -8 0 -4 20 -18 45 -31 24 -13 42 -28 38 -34 -3 -6 -1
-7 5 -3 16 9 73 -25 65 -38 -3 -6 -3 -8 1 -4 12 10 67 -13 59 -25 -3 -5 -1 -7
4 -4 10 6 35 -3 73 -28 8 -5 22 -10 30 -10 8 0 14 -5 13 -11 -1 -8 6 -10 19
-6 16 4 19 2 13 -8 -6 -9 -4 -11 4 -6 7 5 19 0 27 -10 9 -11 13 -14 10 -8 -6
12 70 -10 89 -26 11 -9 16 -10 40 -10 8 0 15 -5 15 -11 0 -6 -7 -8 -17 -4 -14
5 -15 4 -6 -6 10 -10 16 -9 28 1 12 10 19 10 27 2 7 -7 22 -12 35 -12 13 0 23
-3 23 -7 0 -5 10 -9 23 -10 21 -2 56 -9 67 -13 3 -1 8 -2 13 -1 4 0 7 -2 7 -7
0 -4 12 -7 28 -8 15 0 45 -4 67 -9 22 -4 49 -9 60 -11 11 -1 20 -3 20 -4 0 -1
14 -4 30 -5 74 -8 85 -10 85 -15 0 -3 28 -5 63 -4 34 0 79 -3 99 -6 21 -4 39
-6 41 -4 2 2 62 6 133 8 158 6 256 15 269 26 6 5 17 5 25 0 8 -5 19 -6 25 -2
5 3 15 7 20 8 6 1 26 5 45 8 19 4 43 9 54 12 10 4 22 0 27 -7 7 -11 9 -11 9 2
0 9 9 19 20 22 13 3 18 1 13 -6 -4 -8 -2 -8 9 0 8 7 18 10 21 6 4 -3 7 -1 7 6
0 8 8 11 20 8 10 -3 20 -1 22 5 2 5 13 10 26 11 12 0 22 6 22 11 0 6 5 5 12
-2 9 -9 14 -7 24 6 12 16 14 16 28 -3 15 -19 15 -19 9 4 -5 21 -3 23 15 19 12
-4 20 -2 17 2 -7 12 32 23 46 14 8 -4 9 -3 5 4 -5 8 0 12 13 12 12 0 21 5 21
11 0 8 6 7 17 -2 9 -8 14 -9 10 -3 -8 14 20 27 35 17 6 -3 8 -2 5 4 -3 5 31
27 76 48 45 21 102 52 127 67 24 16 51 26 58 23 7 -2 10 -1 7 5 -7 11 32 33
45 25 6 -4 7 1 3 11 -4 12 -3 15 5 10 7 -4 12 -2 12 4 0 7 7 9 16 6 8 -3 13
-2 9 3 -3 5 12 20 32 32 21 13 44 29 51 36 7 7 21 13 30 13 15 0 15 2 2 10
-13 8 -13 10 1 10 9 0 28 12 42 26 14 14 30 23 35 20 6 -3 13 5 16 19 4 14 10
24 14 22 4 -1 24 15 43 35 20 20 39 34 43 31 3 -4 6 -1 6 6 0 7 5 9 12 5 6 -4
8 -3 5 3 -8 13 27 46 37 36 4 -5 6 -3 4 2 -4 14 27 57 35 48 4 -3 7 -1 7 6 0
7 6 18 13 25 6 8 22 25 35 40 12 15 27 24 32 21 5 -3 8 0 5 7 -3 7 10 30 29
51 19 20 33 37 31 37 -3 0 18 32 45 70 28 39 50 75 50 80 0 6 7 10 17 10 9 0
14 3 10 6 -8 8 33 85 49 91 7 2 10 11 7 19 -3 8 0 14 6 14 6 0 10 3 9 8 -4 15
35 82 45 75 6 -3 7 -1 3 5 -4 6 4 35 17 64 13 29 27 63 31 76 4 12 12 19 18
16 7 -4 8 -2 4 5 -10 15 15 82 27 74 6 -3 7 -1 3 6 -9 14 3 53 14 46 5 -3 12
0 16 6 4 8 3 9 -4 5 -8 -5 -12 0 -12 13 0 11 4 22 9 26 6 3 8 14 6 25 -2 11 0
20 6 20 5 0 9 12 9 26 0 16 4 23 11 18 8 -4 8 0 0 15 -10 17 -9 22 3 27 8 3
13 11 10 18 -7 19 15 109 29 118 9 6 9 8 0 8 -8 0 -9 9 -2 32 5 17 11 66 14
107 4 42 8 92 10 111 6 44 6 303 0 350 -2 19 -6 62 -10 95 -9 82 -15 123 -26
170 -5 22 -11 55 -13 73 -2 18 -9 45 -14 60 -6 15 -16 51 -22 80 -7 28 -15 52
-19 52 -4 0 -8 12 -9 26 -1 15 -7 32 -12 39 -5 7 -11 24 -12 39 -1 14 -5 26
-9 26 -4 0 -10 12 -14 28 -9 38 -135 296 -146 300 -5 2 -9 9 -9 15 0 7 -23 45
-50 85 -28 41 -50 78 -50 83 0 5 -4 9 -8 9 -4 0 -15 13 -25 29 -55 94 -307
354 -447 463 -161 124 -351 237 -527 312 -91 38 -279 103 -315 108 -13 2 -28
7 -35 11 -6 4 -24 9 -40 11 -52 7 -108 18 -114 22 -4 2 -31 6 -60 9 -30 4 -60
8 -68 11 -7 2 -63 7 -125 10 -61 3 -135 7 -163 8 -29 2 -54 2 -55 1z"/>
<path d="M4333 969 c-2 -23 3 -25 10 -4 4 8 3 16 -1 19 -4 3 -9 -4 -9 -15z"/>
<path d="M816 941 c-3 -5 2 -15 12 -22 15 -12 16 -12 5 2 -7 9 -10 19 -6 22 3
4 4 7 0 7 -3 0 -8 -4 -11 -9z"/>
<path d="M4215 849 c-4 -6 -5 -12 -2 -15 2 -3 7 2 10 11 7 17 1 20 -8 4z"/>
<path d="M934 816 c1 -8 5 -18 8 -22 4 -3 5 1 4 10 -1 8 -5 18 -8 22 -4 3 -5
-1 -4 -10z"/>
<path d="M4159 813 c-12 -16 -12 -17 2 -6 9 7 20 9 24 5 5 -4 5 -1 1 6 -9 16
-11 15 -27 -5z"/>
<path d="M973 775 c0 -8 4 -12 9 -9 5 3 6 10 3 15 -9 13 -12 11 -12 -6z"/>
<path d="M4145 760 c-3 -6 1 -7 9 -4 18 7 21 14 7 14 -6 0 -13 -4 -16 -10z"/>
<path d="M1016 742 c-3 -5 1 -9 9 -9 8 0 12 4 9 9 -3 4 -7 8 -9 8 -2 0 -6 -4
-9 -8z"/>
<path d="M1174 618 c-4 -7 -4 -10 1 -6 4 4 15 2 24 -5 14 -11 14 -10 2 6 -16
20 -18 21 -27 5z"/>
<path d="M1370 499 c0 -5 5 -7 10 -4 6 3 10 8 10 11 0 2 -4 4 -10 4 -5 0 -10
-5 -10 -11z"/>
<path d="M3755 500 c3 -5 8 -10 11 -10 2 0 4 5 4 10 0 6 -5 10 -11 10 -5 0 -7
-4 -4 -10z"/>
<path d="M3699 488 c-5 -18 -6 -38 -1 -34 7 8 12 36 6 36 -2 0 -4 -1 -5 -2z"/>
<path d="M1415 460 c3 -5 8 -10 11 -10 2 0 4 5 4 10 0 6 -5 10 -11 10 -5 0 -7
-4 -4 -10z"/>
<path d="M1495 420 c3 -5 8 -10 11 -10 2 0 4 5 4 10 0 6 -5 10 -11 10 -5 0 -7
-4 -4 -10z"/>
<path d="M3570 420 c0 -5 5 -10 11 -10 5 0 7 5 4 10 -3 6 -8 10 -11 10 -2 0
-4 -4 -4 -10z"/>
<path d="M3615 420 c3 -5 8 -10 11 -10 2 0 4 5 4 10 0 6 -5 10 -11 10 -5 0 -7
-4 -4 -10z"/>
<path d="M1653 345 c0 -8 4 -12 9 -9 5 3 6 10 3 15 -9 13 -12 11 -12 -6z"/>
<path d="M1695 351 c-3 -5 -2 -12 3 -15 5 -3 9 1 9 9 0 17 -3 19 -12 6z"/>
<path d="M1735 340 c3 -5 8 -10 11 -10 2 0 4 5 4 10 0 6 -5 10 -11 10 -5 0 -7
-4 -4 -10z"/>
<path d="M3400 340 c-12 -7 -10 -9 7 -7 12 0 19 5 17 9 -6 10 -6 10 -24 -2z"/>
<path d="M3455 340 c3 -5 8 -10 11 -10 2 0 4 5 4 10 0 6 -5 10 -11 10 -5 0 -7
-4 -4 -10z"/>
<path d="M3370 320 c0 -5 5 -10 11 -10 5 0 7 5 4 10 -3 6 -8 10 -11 10 -2 0
-4 -4 -4 -10z"/>
<path d="M3275 289 c-4 -6 -5 -12 -2 -15 2 -3 7 2 10 11 7 17 1 20 -8 4z"/>
<path d="M1895 259 c-3 -4 2 -6 10 -5 21 3 28 13 10 13 -9 0 -18 -4 -20 -8z"/>
<path d="M2056 247 c3 -10 9 -15 12 -12 3 3 0 11 -7 18 -10 9 -11 8 -5 -6z"/>
<path d="M3066 242 c-3 -5 1 -9 9 -9 8 0 12 4 9 9 -3 4 -7 8 -9 8 -2 0 -6 -4
-9 -8z"/>
<path d="M3015 220 c3 -5 8 -10 11 -10 2 0 4 5 4 10 0 6 -5 10 -11 10 -5 0 -7
-4 -4 -10z"/>
<path d="M2189 203 c-13 -16 -12 -17 4 -4 16 13 21 21 13 21 -2 0 -10 -8 -17
-17z"/>
<path d="M2790 200 c0 -5 5 -10 10 -10 6 0 10 5 10 10 0 6 -4 10 -10 10 -5 0
-10 -4 -10 -10z"/>
<path d="M2320 180 c-12 -7 -10 -9 7 -7 12 0 19 5 17 9 -6 10 -6 10 -24 -2z"/>
<path d="M2375 180 c3 -5 8 -10 11 -10 2 0 4 5 4 10 0 6 -5 10 -11 10 -5 0 -7
-4 -4 -10z"/>
<path d="M2450 179 c0 -5 5 -7 10 -4 6 3 10 8 10 11 0 2 -4 4 -10 4 -5 0 -10
-5 -10 -11z"/>
<path d="M2655 180 c-3 -5 -1 -10 4 -10 6 0 11 5 11 10 0 6 -2 10 -4 10 -3 0
-8 -4 -11 -10z"/>
<path d="M2785 120 c-3 -6 1 -7 9 -4 18 7 21 14 7 14 -6 0 -13 -4 -16 -10z"/>
</g>
</svg>
